<?xml version="1.0" standalone="no"?>
<!DOCTYPE svg PUBLIC "-//W3C//DTD SVG 20010904//EN"
 "http://www.w3.org/TR/2001/REC-SVG-20010904/DTD/svg10.dtd">
<svg version="1.0" xmlns="http://www.w3.org/2000/svg"
 width="80.000000pt" height="80.000000pt" viewBox="0 0 80.000000 80.000000"
 preserveAspectRatio="xMidYMid meet">
<metadata>
Created by potrace 1.14, written by Peter Selinger 2001-2017
</metadata>
<g transform="translate(0.000000,80.000000) scale(0.100000,-0.100000)"
fill="#000000" stroke="none">
<path d="M298 765 c-161 -58 -254 -193 -260 -376 -2 -69 45 -187 96 -241 75
-79 183 -124 278 -114 32 3 66 9 75 15 10 5 21 9 26 10 27 2 89 42 128 82 70
73 102 147 105 242 3 79 -17 175 -40 189 -6 4 -7 8 -3 8 13 0 -32 60 -77 104
-82 79 -230 116 -328 81z"/>
</g>
</svg>
